HIERARCHY
ROOT Hips
{
  OFFSET -329.849 81.0561 336.546
  CHANNELS 6 Xposition Yposition Zposition Zrotation Xrotation Yrotation
  JOINT ToSpine
  {
    OFFSET -0.0105055 1.38907 -7.13956
    CHANNELS 3 Zrotation Xrotation Yrotation
    JOINT Spine
    {
      OFFSET 0.0105055 10 1
      CHANNELS 3 Zrotation Xrotation Yrotation
      JOINT Spine1
      {
        OFFSET 0 12 1.60637
        CHANNELS 3 Zrotation Xrotation Yrotation
        JOINT Neck
        {
          OFFSET 0 27 2.26658
          CHANNELS 3 Zrotation Xrotation Yrotation
          JOINT Head
          {
            OFFSET 0 9 2.12705
            CHANNELS 3 Zrotation Xrotation Yrotation
            End Site
            {
              OFFSET 0 11 2
            }
          }
        }
        JOINT LeftShoulder
        {
          OFFSET 8 19.6109 2.86452
          CHANNELS 3 Zrotation Xrotation Yrotation
          JOINT LeftArm
          {
            OFFSET 12 1 0.681055
            CHANNELS 3 Zrotation Xrotation Yrotation
            JOINT LeftForeArm
            {
              OFFSET 19 0 -1.52608
              CHANNELS 3 Zrotation Xrotation Yrotation
              JOINT LeftHand
              {
                OFFSET 23 0 0
                CHANNELS 3 Zrotation Xrotation Yrotation
                End Site
                {
                  OFFSET 10 0 0
                }
              }
            }
          }
        }
        JOINT RightShoulder
        {
          OFFSET -8 19.6109 2.86452
          CHANNELS 3 Zrotation Xrotation Yrotation
          JOINT RightArm
          {
            OFFSET -12 1 0.681055
            CHANNELS 3 Zrotation Xrotation Yrotation
            JOINT RightForeArm
            {
              OFFSET -19 0 -1.52608
              CHANNELS 3 Zrotation Xrotation Yrotation
              JOINT RightHand
              {
                OFFSET -23 0 0
                CHANNELS 3 Zrotation Xrotation Yrotation
                End Site
                {
                  OFFSET -10 0 0
                }
              }
            }
          }
        }
      }
    }
  }
  JOINT LeftUpLeg
  {
    OFFSET 9 -7.17245 0
    CHANNELS 3 Zrotation Xrotation Yrotation
    JOINT LeftLeg
    {
      OFFSET 0 -44.1113 0
      CHANNELS 3 Zrotation Xrotation Yrotation
      JOINT LeftFoot
      {
        OFFSET 0 -36.1829 0
        CHANNELS 3 Zrotation Xrotation Yrotation
        JOINT LeftToeBase
        {
          OFFSET 0 -4.84184 13
          CHANNELS 3 Zrotation Xrotation Yrotation
          End Site
          {
            OFFSET 0 1 6
          }
        }
      }
    }
  }
  JOINT RightUpLeg
  {
    OFFSET -9 -7.17245 0
    CHANNELS 3 Zrotation Xrotation Yrotation
    JOINT RightLeg
    {
      OFFSET 0 -44.0551 0
      CHANNELS 3 Zrotation Xrotation Yrotation
      JOINT RightFoot
      {
        OFFSET 0 -36.1469 0
        CHANNELS 3 Zrotation Xrotation Yrotation
        JOINT RightToeBase
        {
          OFFSET 0 -4.92256 13
          CHANNELS 3 Zrotation Xrotation Yrotation
          End Site
          {
            OFFSET 0 1 6
          }
        }
      }
    }
  }
}
MOTION
Frames:	12
Frame Time:	0.0333333
-46.5436 55.8314 36.1218 -17.4703 -15.3113 137.025 0 0 0 7.33294 53.7869 -3.35032 -5.62709 -1.11959 1.96949 7.65257 -9.71792 -1.31807 -2.28893 2.38342 0.919676 -8.17808 3.12013 -16.1888 -18.9657 -9.76064 -83.667 -3.88771 -1.16563 4.58565 -18.6701 1.34075 -8.14285 11.1156 4.17823 19.0072 26.5547 -18.2295 52.5907 5.37547 -24.464 12.6242 9.92621 1.02356 11.7457 100.866 -55.6034 125.145 -180 56.4242 134.501 26.4406 1.45408 -0.341613 3.46968 -15.2354 -22.5663 -91.3613 -54.541 -122.424 180 57.0551 -174.468 -33.6993 -35.0147 -10.9144 2.30711 -8.81594 0.900845 
-46.6138 55.7545 36.3154 -18.3638 -14.9546 137.252 0 0 0 7.28822 53.1186 -3.68596 -5.88634 -1.58017 1.6806 7.40446 -11.0619 -1.19539 -1.76784 3.1997 0.786795 -8.48148 3.22971 -16.5272 -20.0572 -9.37999 -83.418 -3.76733 -1.43151 4.5865 -16.4365 1.44825 -10.0026 12.3073 4.48774 19.326 24.5548 -18.0664 52.2552 4.80556 -23.1616 11.6945 9.81492 0.905706 10.519 101.051 -56.39 126.126 180 56.7215 134.606 25.8794 1.39554 -0.320654 3.30625 -15.5346 -21.4073 -93.187 -54.8574 -122.873 180 57.1524 -175.295 -33.5538 -36.3116 -11.2922 2.09197 -7.833 -0.111 
-46.753 55.7354 36.4334 -18.618 -14.7933 137.221 0 0 0 7.4745 52.9176 -3.92205 -6.01276 -2.38495 1.55769 6.9542 -13.0303 -1.05327 -1.51707 5.09493 0.678498 -9.55213 3.45454 -16.7038 -20.1762 -9.09809 -83.2745 -3.93595 -0.848677 4.5859 -17.0257 1.34471 -8.96599 12.0971 4.47784 19.4965 23.8468 -17.1668 52.559 4.74528 -24.9432 10.0515 9.65414 0.889127 10.4994 100.753 -57.0311 125.81 180 56.6603 135.154 26.6128 -0.570309 0.134883 3.50312 -14.0138 -21.5095 -92.7989 -55.7214 -120.794 -180 57.4438 -173.706 -31.573 -39.9241 -11.7261 1.75097 -6.74313 0.609601 
-46.9604 55.7647 36.5864 -19.2393 -14.9762 137.209 0 0 0 8.52447 52.7184 -4.79121 -6.97018 -4.08187 1.2076 7.41202 -14.8616 -1.18722 -2.25137 6.23241 0.738978 -8.72811 3.39053 -17.2232 -21.1893 -8.43434 -82.4334 -3.94659 -0.305795 4.58571 -19.1682 1.3707 -8.10461 12.5264 4.46968 19.0121 23.6401 -15.5831 53.3144 4.09847 -23.2773 8.51284 10.2706 0.862284 9.57276 100.633 -57.9772 126.025 180 57.1129 134.943 29.1421 -0.919782 0.239093 2.83236 -17.1799 -18.4317 -93.1187 -56.8422 -120.489 180 58.5212 -175.603 -33.0113 -43.5072 -13.4869 1.44424 -6.27225 3.04396 
-47.1915 55.9147 36.7602 -19.5738 -14.9317 137.456 0 0 0 8.87556 52.2754 -4.98141 -7.05479 -4.67728 0.946298 7.52525 -17.2184 -1.23581 -3.0674 7.19065 0.812484 -8.93057 3.47849 -17.5189 -21.7421 -7.98689 -82.5495 -4.1586 1.13927 4.58669 -20.0095 1.51798 -8.5891 13.3116 4.63468 19.0251 21.132 -14.5921 53.603 3.7182 -21.3408 7.41883 7.73418 0.553277 8.17123 100.441 -58.602 126.628 -180 57.5644 134.92 31.705 -0.31162 0.0884882 2.5048 -18.5242 -15.9195 -93.7534 -57.0415 -121.187 -180 59.1054 -177.352 -34.309 -44.0636 -14.2404 1.67474 -7.24703 3.96427 
-47.3136 56.0963 36.8308 -19.2547 -15.2914 137.629 0 0 0 10.3727 52.6963 -5.60215 -7.7684 -6.81578 0.910617 7.78938 -17.9865 -1.4197 -3.41396 7.674 0.742248 -8.93312 3.54357 -17.9005 -22.4589 -7.13194 -82.0958 -4.30666 2.66549 4.59075 -20.2033 1.48725 -8.33376 14.3977 4.95484 19.4538 19.7121 -14.8172 52.8476 3.08989 -20.8538 5.23569 9.52778 0.823396 9.85602 100.044 -58.6491 126.294 180 58.1431 134.331 32.7998 0.771388 -0.227034 2.26945 -21.4525 -15.5986 -93.5474 -57.3755 -121.211 180 59.5392 -178.002 -34.4176 -43.5365 -14.1011 1.66215 -7.30026 4.41554 
-47.4739 56.5044 36.8229 -19.1483 -15.8089 137.68 0 0 0 11.4287 52.3073 -5.92088 -8.16865 -7.95515 1.01347 8.2384 -18.7145 -1.61324 -4.98516 7.16379 1.00312 -9.15201 3.63429 -18.182 -24.4492 -6.74141 -81.8589 -4.04854 6.39286 4.61433 -19.1523 1.50257 -8.88891 15.3898 5.22878 19.7281 15.0598 -13.2749 51.7581 3.18735 -18.3979 4.48139 8.19589 0.606448 8.44937 99.9251 -58.5706 126.126 -180 58.7321 133.864 31.491 -0.316404 0.0892085 2.53927 -18.6716 -16.5069 -92.9232 -57.496 -121.068 -180 60.3141 -177.649 -34.5578 -42.9815 -13.9648 1.50978 -6.37915 2.57655 
-47.6075 57.2958 36.8768 -19.7833 -16.4155 137.615 0 0 0 11.5311 51.3457 -5.88723 -8.3753 -8.73452 1.02429 8.09898 -19.1852 -1.50994 -4.44224 6.93739 0.886483 -9.70645 3.78993 -18.4455 -24.2511 -6.34095 -81.2369 -4.08646 6.31403 4.6132 -20.2408 1.3984 -7.82265 15.656 5.35916 20.0407 14.3738 -13.1899 51.285 2.87987 -16.3225 4.05261 9.51338 0.626977 7.52401 100.313 -58.4552 127.237 -180 60.024 134.994 26.5691 -1.72227 0.406665 3.56181 -13.8094 -21.786 -93.6236 -57.5001 -122 -180 61.8032 -177.787 -34.6889 -41.5746 -13.5227 1.39258 -5.52819 0.935315 
-47.7187 58.3357 36.8937 -20.4199 -17.0446 137.57 0 0 0 11.1045 50.4681 -5.49102 -7.92469 -9.76136 0.832117 8.04735 -19.1827 -1.29496 -4.2781 5.89427 0.994669 -10.3474 3.90826 -18.3932 -23.7481 -5.9274 -80.6854 -4.24812 7.79176 4.6273 -20.7003 1.34761 -7.36885 15.8021 5.4734 20.3905 13.7457 -13.2299 50.3131 2.99045 -17.2936 3.99468 11.4485 0.789793 7.86671 99.5007 -59.006 127.139 -180 61.9538 133.757 29.3786 0.123685 -0.0324235 3.01735 -16.2448 -19.3877 -93.4961 -57.6867 -121.986 180 63.6979 -177.515 -32.4483 -42.1778 -12.8055 0.716025 -3.67579 2.64385 
-47.7544 59.7761 36.958 -21.4795 -17.977 137.341 0 0 0 11.2278 48.9382 -5.6204 -8.69764 -9.80092 0.82492 8.46207 -20.9459 -1.24338 -4.34879 5.68077 0.978696 -9.94787 3.79119 -18.1836 -23.1517 -6.07847 -81.1205 -4.35294 7.40372 4.62214 -20.7269 1.40014 -7.64527 15.791 5.34415 19.8513 14.5064 -13.3878 50.6316 2.96063 -16.6879 4.83832 9.88891 0.692477 7.99153 99.586 -59.5813 127.723 180 64.4009 134.79 25.8355 -0.393785 0.0903175 3.66605 -14.1005 -22.9566 -94.0488 -58.3999 -122.648 180 66.3464 -178.793 -32.5536 -40.4122 -12.2673 1.23479 -5.55562 3.00707 
-47.8746 61.5839 36.8658 -22.8672 -18.9851 137.182 0 0 0 11.4286 47.7199 -5.90249 -9.14116 -10.8624 0.554007 8.15822 -22.0717 -0.995235 -3.91581 5.48245 0.969327 -10.2247 3.79915 -17.9266 -21.8674 -5.9251 -80.9489 -4.55697 6.64512 4.61329 -21.6762 1.34176 -7.00003 16.418 5.44309 19.6971 13.6008 -13.4008 50.3404 2.89812 -15.257 5.31568 10.5098 0.704671 7.65037 98.8516 -61.1906 128.006 180 67.6723 135.981 24.6695 -0.881884 0.192846 3.83992 -14.2195 -24.5497 -93.9403 -58.852 -123.009 -180 69.683 -179.578 -34.8943 -38.3483 -12.4738 1.93638 -7.63848 1.61908 
-47.956 63.7302 36.7978 -24.1227 -20.0471 137.334 0 0 0 11.438 45.9749 -5.83303 -8.94654 -11.2451 0.0459773 7.50992 -23.191 -1.00963 -3.30438 4.81996 0.633635 -9.98456 3.78034 -18.0827 -21.2812 -5.95497 -80.6274 -4.60881 6.61627 4.61136 -19.5834 1.34051 -7.75593 16.6195 5.50206 19.7609 12.0229 -12.6696 49.7386 3.35442 -16.7456 5.6788 10.3784 0.676986 7.44397 97.0712 -62.983 126.787 180 71.4928 133.745 25.6302 -0.168202 0.0382612 3.27694 -13.3549 -19.0811 -93.8481 -58.5333 -122.041 -180 72.9477 -177.432 -28.9074 -38.8642 -10.3915 0.393906 -3.14135 4.26028 
